<?xml version="1.0" encoding="UTF-8"?>
<svg width="32px" height="32px" version="1.1" viewBox="0 0 1200 1200" xmlns="http://www.w3.org/2000/svg">
 <g>
  <path d="m984.36 63.238s-0.12109-0.35938-0.12109-0.48047c0-0.48047-0.12109-0.96094-0.23828-1.4414-0.23828-0.71875-0.48047-1.3203-0.71875-2.0391-0.23828-0.48047-0.35938-1.0781-0.71875-1.5586 0-0.12109-0.12109-0.23828-0.23828-0.35938 0-0.12109-0.12109-0.23828-0.23828-0.35938-0.23828-0.35938-0.48047-0.60156-0.71875-0.96094-0.35938-0.48047-0.60156-0.96094-0.83984-1.3203 0 0-0.12109 0-0.23828-0.23828 0 0 0-0.12109-0.12109-0.12109-0.48047-0.48047-0.96094-0.83984-1.4414-1.3203l-0.71875-0.71875c-0.23828-0.12109-0.35937-0.35937-0.60156-0.48047-0.60156-0.48047-1.4414-0.83984-2.0391-1.3203-0.35938-0.23828-0.83984-0.48047-1.1992-0.71875-0.23828-0.12109-0.60156-0.23828-0.83984-0.35938-0.35938-0.12109-0.71875-0.23828-0.96094-0.35938-0.23828 0-0.48047-0.12109-0.71875-0.23828-0.35938 0-0.71875-0.23828-1.0781-0.35938-1.3203-0.23828-2.5195-0.48047-3.8398-0.48047l-716.65-0.003906c-8.6406 0-16.078 6.1211-17.641 14.641l-21.359 110.64c-3.3594 17.281-0.12109 34.441 8.7617 48l-72.121 521.88c-17.52 104.76-18.238 211.2-2.0391 316.2 0 0.35938 0.12109 0.83984 0.23828 1.1992l12 53.52c1.8008 8.0391 8.7617 13.801 16.922 14.039l707.16 24h0.60156c0.71875 0 1.3203-0.12109 2.0391-0.23828l3.9609 0.23828h0.83984c2.8789 0 5.7617-0.71875 8.2812-2.0391l161.16-84c5.0391-2.6406 8.6406-7.5586 9.4805-13.199l9.4805-61.32c18-116.76 14.879-271.2-7.8008-383.4l-85.68-545.04zm-738 116.88 18.602-96.121h679.8l-17.281 89.281c-4.0781 21.359-25.922 39.48-47.52 39.48h-606.96c-9.1211 0-16.801-3.2383-21.719-9.2383-4.9219-6-6.7188-14.281-4.9219-23.398zm-56.398 912.6-8.7617-39.359c-15.602-101.04-14.879-203.4 2.1602-304.68l69.48-502.92c6.3594 1.9219 13.078 3 20.281 3h606.96c16.078 0 31.559-5.1602 45-13.801l-70.078 504.48c-17.52 104.16-18.48 209.88-2.6406 314.28l9.3594 61.801-671.52-22.801zm852.24-106.56-8.0391 52.32-137.04 71.398-9.3594-61.68c-15.238-100.56-14.398-202.56 2.6406-303.48l77.281-555.96 66.961 425.76c22.078 109.32 25.078 258.6 7.6797 371.52z"/>
  <path d="m791.4 521.52h-500.52c-9 0-16.559 6.6016-17.879 15.48l-29.398 212.88c-12.48 74.762-13.078 150.72-1.4414 225.6 0 0.71875 0.23828 1.3203 0.48047 2.0391l8.5195 30.84c2.0391 7.5586 8.7617 12.84 16.441 13.199l500.64 24h0.83984c5.0391 0 9.9609-2.1602 13.32-6 3.6016-3.9609 5.2812-9.4805 4.4414-14.762l-8.8789-58.922c-10.68-70.68-10.078-142.32 1.8008-212.88v-0.48047l29.398-210.6c0.71875-5.1602-0.83984-10.32-4.1992-14.281-3.3594-3.9609-8.3984-6.1211-13.559-6.1211zm-47.039 225.96c-12.48 74.16-13.078 149.52-1.9219 223.92l5.6406 37.199-465.72-22.32-4.8008-17.281c-10.801-70.801-10.32-142.44 1.5586-213.6l27.359-197.88h464.16l-26.398 189.96z"/>
 </g>
</svg>
